<svg width="814" height="837" viewBox="0 0 814 837" fill="none" xmlns="http://www.w3.org/2000/svg">
<path d="M76.8594 97.6908L519.245 194.806L671.96 42.0902C841.764 -69.634 838.256 68.9494 768.538 138.667L615.822 291.383C649.249 404.487 699.513 653.946 722.928 743.759C746.343 833.572 630.834 835.853 619.949 806.775C586.56 718.01 494.283 521.754 476.489 497.321C456.497 470.689 466.478 474.03 403.4 537.108L277.243 663.264C307.247 713.187 323.939 756.439 307.35 779.688C290.37 800.249 271.472 819.147 250.912 836.127L7.80336 593.019L64.2418 536.58C94.1209 506.701 148.516 547.817 180.666 566.687C189.476 544.556 233.753 493.618 290.171 423.879C352.496 346.768 346.599 360.791 323.298 344.129C299.996 327.468 10.513 197.34 10.513 197.34C-21.4905 144.089 26.978 94.2881 76.8594 97.6908Z" fill="#E0E0E0"/>
</svg>
