<svg width="50" height="50" viewBox="0 0 116 118" fill="none" xmlns="http://www.w3.org/2000/svg">
<ellipse cx="58.0005" cy="58.5686" rx="58" ry="58.5686" fill="#0383CB"/>
<path d="M38.0507 39.4931L64.0426 49.1555L76.3185 41.2034C88.9547 35.8757 86.2628 44.2577 80.6516 47.8925L68.3684 55.8494C68.4271 62.9783 67.1449 78.5546 67.0059 84.208C66.8668 89.8613 59.595 89.0086 59.4313 87.1527C58.8872 81.5029 56.6634 68.771 55.9605 67.1569C55.1774 65.3708 55.7465 65.6561 50.6693 68.945L40.515 75.5228C41.5007 78.8081 41.7775 81.5762 40.3103 82.8223C38.8783 83.9233 37.3573 84.9085 35.7672 85.7652L24.8853 68.9666L29.4284 66.0237C31.8353 64.4645 34.4927 67.4285 36.1737 68.8211C37.1189 67.5547 40.8012 64.838 45.5799 61.0884C50.8641 56.9487 50.2392 57.7477 49.0806 56.5363C47.922 55.3249 32.0999 44.9605 32.0999 44.9605C31.055 41.4716 34.9842 38.8636 38.0507 39.4931Z" fill="white"/>
</svg>
