<svg width="196" height="87" viewBox="0 0 196 87" fill="none" xmlns="http://www.w3.org/2000/svg">
<g clip-path="url(#clip0_141_85)">
<path d="M195.862 0.137733H0.137573V86.8623H195.862V0.137733Z" fill="#0383CB"/>
<path d="M181.971 8.92809H14.7172C12.0585 8.92809 9.9032 11.0864 9.9032 13.7489V73.2511C9.9032 75.9136 12.0585 78.0719 14.7172 78.0719H181.971C184.629 78.0719 186.785 75.9136 186.785 73.2511V13.7489C186.785 11.0864 184.629 8.92809 181.971 8.92809Z" stroke="white" stroke-width="2"/>
<path d="M56.1179 8.23666V78.7661" stroke="white" stroke-width="2"/>
<path d="M56.2554 17.33C57.4708 17.33 58.4561 16.3434 58.4561 15.1262C58.4561 13.9091 57.4708 12.9225 56.2554 12.9225C55.04 12.9225 54.0547 13.9091 54.0547 15.1262C54.0547 16.3434 55.04 17.33 56.2554 17.33Z" fill="white"/>
<path d="M56.2554 28.349C57.4708 28.349 58.4561 27.3623 58.4561 26.1452C58.4561 24.9281 57.4708 23.9414 56.2554 23.9414C55.04 23.9414 54.0547 24.9281 54.0547 26.1452C54.0547 27.3623 55.04 28.349 56.2554 28.349Z" fill="white"/>
<path d="M56.2554 39.3679C57.4708 39.3679 58.4561 38.3812 58.4561 37.1641C58.4561 35.947 57.4708 34.9603 56.2554 34.9603C55.04 34.9603 54.0547 35.947 54.0547 37.1641C54.0547 38.3812 55.04 39.3679 56.2554 39.3679Z" fill="white"/>
<path d="M56.2554 50.3868C57.4708 50.3868 58.4561 49.4002 58.4561 48.1831C58.4561 46.9659 57.4708 45.9793 56.2554 45.9793C55.04 45.9793 54.0547 46.9659 54.0547 48.1831C54.0547 49.4002 55.04 50.3868 56.2554 50.3868Z" fill="white"/>
<path d="M56.2554 61.4058C57.4708 61.4058 58.4561 60.4191 58.4561 59.202C58.4561 57.9849 57.4708 56.9982 56.2554 56.9982C55.04 56.9982 54.0547 57.9849 54.0547 59.202C54.0547 60.4191 55.04 61.4058 56.2554 61.4058Z" fill="white"/>
<path d="M56.2554 72.4247C57.4708 72.4247 58.4561 71.438 58.4561 70.2209C58.4561 69.0038 57.4708 68.0171 56.2554 68.0171C55.04 68.0171 54.0547 69.0038 54.0547 70.2209C54.0547 71.438 55.04 72.4247 56.2554 72.4247Z" fill="white"/>
<path d="M86.6251 36.3377C86.6251 37.5718 86.3436 38.4708 85.7806 39.0346C85.2175 39.5984 84.3253 39.8738 83.104 39.861H80.9913V41.0951H77.8223V39.861H75.7096C74.4772 39.861 73.5795 39.5855 73.0165 39.0346C72.4535 38.4836 72.1784 37.5847 72.1912 36.3377V32.8116C72.1912 31.5775 72.4663 30.6841 73.0165 30.1313C73.5667 29.5785 74.4644 29.2966 75.7096 29.2856H77.8223V28.0515H80.9913V29.2856H83.104C84.3364 29.2856 85.2285 29.5675 85.7806 30.1313C86.3326 30.6951 86.6141 31.5885 86.6251 32.8116V36.3377ZM83.4561 32.8116C83.4561 32.1064 83.104 31.7538 82.3997 31.7538H80.8152V37.3955H82.3997C83.104 37.3955 83.4561 37.0429 83.4561 36.3377V32.8116ZM75.3575 36.3377C75.3575 37.0429 75.7096 37.3955 76.4138 37.3955H77.9983V31.7538H76.4138C75.7096 31.7538 75.3575 32.1064 75.3575 32.8116V36.3377Z" fill="white"/>
<path d="M90.0637 40.7453H86.6306L91.3071 28.4041H94.8282L99.5047 40.7453H96.0496L95.2574 38.5415H90.856L90.0637 40.7453ZM91.6482 36.2495H94.4651L93.0567 32.1174L91.6482 36.2495Z" fill="white"/>
<path d="M103.532 33.1642H107.757C108.99 33.1642 109.882 33.4461 110.434 34.0099C110.986 34.5737 111.267 35.4672 111.278 36.6903V37.2192C111.278 38.4533 110.997 39.3523 110.434 39.9161C109.871 40.4799 108.979 40.7554 107.757 40.7425H100.363V28.4013H110.134V30.8806H103.532V33.1642ZM108.109 36.6903C108.109 35.9851 107.757 35.6325 107.053 35.6325H103.532V38.2908H107.053C107.757 38.2908 108.109 37.9382 108.109 37.233V36.6903Z" fill="white"/>
<path d="M112.863 28.4041H120.257C121.49 28.4041 122.382 28.686 122.934 29.2498C123.486 29.8136 123.767 30.707 123.778 31.9301V33.6931C123.778 34.9273 123.497 35.8262 122.934 36.39C122.371 36.9538 121.479 37.2293 120.257 37.2165H116.032V40.7425H112.863V28.4041ZM120.609 31.9301C120.609 31.2249 120.257 30.8723 119.553 30.8723H116.032V34.751H119.553C120.257 34.751 120.609 34.3984 120.609 33.6931V31.9301Z" fill="white"/>
<path d="M136.102 40.7453H132.931V33.1642L128.708 40.7453H125.36V28.4041H128.529V35.9851L132.757 28.4041H136.102V40.7453Z" fill="white"/>
<path d="M147.202 28.2278C147.733 28.2521 148.261 28.311 148.784 28.4041V30.7841H148.08C147.906 30.7836 147.738 30.8463 147.607 30.9605C147.477 31.0546 147.368 31.1747 147.287 31.3131L145.618 34.4865L149.051 40.7453H145.706L142.974 35.7206H141.395V40.7453H138.221V28.4041H141.395V33.2524H142.98L144.74 29.9026C144.973 29.4428 145.297 29.0351 145.692 28.7043C146.124 28.3729 146.659 28.2043 147.202 28.2278Z" fill="white"/>
<path d="M152.302 40.7453H148.869L153.546 28.4041H157.067L161.743 40.7453H158.288L157.496 38.5415H153.095L152.302 40.7453ZM153.887 36.2495H156.704L155.295 32.1174L153.887 36.2495Z" fill="white"/>
<path d="M77.8223 48.1059V55.0699H74.7414V48.1059H71.8364V45.7286H80.7273V48.1087L77.8223 48.1059Z" fill="white"/>
<path d="M84.2566 58.2433C83.4898 58.2332 82.7244 58.1743 81.9651 58.067V55.7751H83.5524C83.998 55.7751 84.2841 55.6511 84.4134 55.406C84.5427 55.1608 84.5317 54.8109 84.3446 54.3647L80.7327 45.7286H83.9925L86.1932 51.7229L88.0418 45.7286H91.2988L87.775 55.4252C87.5188 56.2247 87.0656 56.9466 86.4573 57.5243C85.8395 58.0314 85.0542 58.288 84.2566 58.2433Z" fill="white"/>
<path d="M97.0234 48.1059C96.306 48.1218 95.5946 48.2406 94.9108 48.4585V52.6898H97.5543C97.6498 52.7032 97.7471 52.6941 97.8385 52.6634C97.9299 52.6326 98.0129 52.581 98.0809 52.5126C98.149 52.4442 98.2002 52.3609 98.2305 52.2692C98.2609 52.1776 98.2695 52.0801 98.2558 51.9846V48.723C98.2585 48.6415 98.2445 48.5602 98.2146 48.4844C98.1847 48.4085 98.1397 48.3395 98.0822 48.2817C98.0248 48.2239 97.9561 48.1785 97.8805 48.1483C97.8048 48.118 97.7238 48.1036 97.6424 48.1059H97.0234ZM94.9053 55.0699V58.067H91.8325V45.7286H94.5586L94.7375 46.6101C95.2568 46.2611 95.8264 45.9935 96.4265 45.8167C96.9034 45.6553 97.4008 45.5625 97.9037 45.5413H98.6987C99.0518 45.5168 99.406 45.5684 99.7375 45.6927C100.069 45.8169 100.37 46.0109 100.62 46.2615C100.871 46.5121 101.064 46.8136 101.188 47.1455C101.312 47.4775 101.364 47.8322 101.34 48.1858V52.2408C101.361 52.6209 101.304 53.0013 101.174 53.3589C101.043 53.7165 100.841 54.0437 100.58 54.3206C100.088 54.8164 99.4029 55.0616 98.5199 55.0616L94.9053 55.0699Z" fill="white"/>
<path d="M112.428 52.4253C112.449 52.8052 112.393 53.1854 112.263 53.5429C112.133 53.9004 111.932 54.2277 111.672 54.5052C111.396 54.7618 111.072 54.9599 110.718 55.0872C110.363 55.2146 109.987 55.2687 109.611 55.2462H105.562C105.183 55.2844 104.8 55.2378 104.441 55.1095C104.081 54.9813 103.755 54.7747 103.486 54.5047C103.216 54.2348 103.01 53.9081 102.882 53.5485C102.754 53.1889 102.707 52.8052 102.745 52.4253V48.3704C102.723 47.9942 102.777 47.6174 102.904 47.2627C103.031 46.9081 103.229 46.583 103.485 46.3071C103.762 46.0467 104.089 45.8453 104.446 45.7151C104.803 45.5849 105.183 45.5286 105.562 45.5495H109.611C109.989 45.5187 110.369 45.5705 110.725 45.7014C111.081 45.8323 111.404 46.039 111.672 46.3074C111.94 46.5757 112.146 46.8992 112.277 47.2555C112.407 47.6117 112.459 47.9921 112.428 48.3704V52.4253ZM109.347 48.6348C109.361 48.539 109.353 48.4413 109.322 48.3494C109.292 48.2575 109.24 48.174 109.172 48.1056C109.103 48.0371 109.02 47.9855 108.928 47.955C108.836 47.9245 108.739 47.9158 108.643 47.9296H106.53C106.435 47.9158 106.337 47.9245 106.245 47.955C106.154 47.9855 106.07 48.0371 106.002 48.1056C105.934 48.174 105.882 48.2575 105.852 48.3494C105.821 48.4413 105.812 48.539 105.826 48.6348V52.1609C105.812 52.2567 105.821 52.3544 105.852 52.4463C105.882 52.5382 105.934 52.6217 106.002 52.6901C106.07 52.7586 106.154 52.8102 106.245 52.8407C106.337 52.8712 106.435 52.8799 106.53 52.8661H108.643C108.739 52.8799 108.836 52.8712 108.928 52.8407C109.02 52.8102 109.103 52.7586 109.172 52.6901C109.24 52.6217 109.292 52.5382 109.322 52.4463C109.353 52.3544 109.361 52.2567 109.347 52.1609V48.6348Z" fill="white"/>
<path d="M120.7 55.0699H114.01V45.7286H120.172C120.52 45.7128 120.867 45.7671 121.194 45.8882C121.52 46.0094 121.819 46.1949 122.073 46.4338C122.3 46.6246 122.483 46.8616 122.61 47.1291C122.738 47.3966 122.807 47.6883 122.813 47.9847C122.834 48.4812 122.706 48.9726 122.444 49.3951C122.198 49.7595 121.829 50.0226 121.404 50.1361C121.933 50.23 122.412 50.5046 122.761 50.913C123.165 51.3808 123.373 51.9868 123.341 52.6044C123.349 52.9339 123.287 53.2613 123.159 53.5651C123.032 53.8689 122.842 54.1424 122.601 54.3674C122.347 54.6058 122.048 54.7909 121.722 54.9115C121.395 55.0322 121.048 55.086 120.7 55.0699ZM120.26 52.0645C120.262 51.9829 120.247 51.9018 120.217 51.8261C120.187 51.7504 120.141 51.6816 120.084 51.6239C120.026 51.5663 119.958 51.5209 119.882 51.4905C119.806 51.4602 119.725 51.4455 119.644 51.4474H117.091V52.946H119.644C119.725 52.9479 119.806 52.9332 119.882 52.9028C119.958 52.8725 120.026 52.8271 120.084 52.7694C120.141 52.7118 120.187 52.643 120.217 52.5673C120.247 52.4916 120.262 52.4105 120.26 52.3289V52.0645ZM119.732 48.4503C119.734 48.3687 119.719 48.2876 119.689 48.2119C119.659 48.1362 119.613 48.0674 119.556 48.0097C119.498 47.9521 119.429 47.9067 119.354 47.8763C119.278 47.846 119.197 47.8313 119.116 47.8332H117.091V49.4199H119.113C119.194 49.4218 119.275 49.4071 119.351 49.3768C119.427 49.3464 119.495 49.3011 119.553 49.2434C119.611 49.1857 119.656 49.1169 119.686 49.0412C119.716 48.9655 119.731 48.8844 119.729 48.8029L119.732 48.4503Z" fill="white"/>
<path d="M150.748 62.5077V73.5266" stroke="white"/>
<path d="M152.949 62.5077V73.5266" stroke="white"/>
<path d="M155.149 62.5077V73.5266" stroke="white"/>
<path d="M157.35 62.5077V73.5266" stroke="white"/>
<path d="M159.551 62.5077V73.5266" stroke="white"/>
<path d="M161.752 62.5077V73.5266" stroke="white"/>
<path d="M163.952 62.5077V73.5266" stroke="white"/>
<path d="M166.153 62.5077V73.5266" stroke="white"/>
<path d="M168.354 62.5077V73.5266" stroke="white"/>
<path d="M170.554 62.5077V73.5266" stroke="white"/>
<path d="M172.755 62.5077V73.5266" stroke="white"/>
<path d="M174.956 62.5077V73.5266" stroke="white"/>
<path d="M177.156 62.5077V73.5266" stroke="white"/>
<path d="M179.357 62.5077V73.5266" stroke="white"/>
<path d="M181.558 62.5077V73.5266" stroke="white"/>
<path d="M19.9439 44.4642L31.0849 37.3019V30.966C32.2843 25.1259 35.0737 28.0735 35.0737 30.966V37.3019C38.0997 38.9547 44.2892 43.0868 46.6274 44.4642C48.9656 45.8415 46.6274 48.285 45.8021 47.9076C43.2796 46.7589 37.3212 44.6019 36.4492 44.4642C35.4864 44.3264 35.7614 44.1887 35.7614 46.8057V52.0397C37.412 52.4529 38.6499 53.0038 38.7874 53.8303C38.8613 54.609 38.8613 55.393 38.7874 56.1718H28.7467V53.8303C28.7467 52.5906 30.7191 52.3151 31.7727 52.0397C31.4976 51.3978 31.36 49.4227 31.0849 46.8057C30.7796 43.9132 30.9474 44.3264 30.1221 44.4642C29.2969 44.6019 20.6316 47.9076 20.6316 47.9076C18.8711 47.4668 18.8435 45.4283 19.9439 44.4642Z" fill="white"/>
</g>
<defs>
<clipPath id="clip0_141_85">
<rect width="196" height="87" fill="white"/>
</clipPath>
</defs>
</svg>
