<svg width="50" height="50" viewBox="0 0 50 50" fill="none" xmlns="http://www.w3.org/2000/svg">
<path d="M25 0C11.25 0 0 11.25 0 25C0 38.75 11.25 50 25 50C38.75 50 50 38.75 50 25C50 11.25 38.75 0 25 0Z" fill="#29B6F6"/>
<path d="M37.5 13.75L32.875 37.625C32.875 37.625 32.625 38.75 31.375 38.75C30.625 38.75 30.25 38.375 30.25 38.375L20 30L15 27.5L8.625 25.75C8.625 25.75 7.5 25.375 7.5 24.5C7.5 23.75 8.625 23.375 8.625 23.375L35.25 12.75C35.25 12.75 36.125 12.5 36.625 12.5C37 12.5 37.375 12.625 37.375 13.125C37.5 13.5 37.5 13.75 37.5 13.75Z" fill="white"/>
<path d="M23.75 33.125L19.5 37.375C19.5 37.375 19.375 37.5 19.125 37.5C19 37.5 19 37.5 18.875 37.5L20.125 30L23.75 33.125Z" fill="#B0BEC5"/>
<path d="M32.375 17.75C32.125 17.5 31.75 17.375 31.5 17.625L15 27.5C15 27.5 17.625 34.875 18 36.125C18.375 37.375 18.75 37.375 18.75 37.375L20 29.875L32.25 18.5C32.5 18.375 32.625 18 32.375 17.75Z" fill="#CFD8DC"/>
</svg>
