<svg width="50" height="50" viewBox="0 0 50 50" fill="none" xmlns="http://www.w3.org/2000/svg">
<path d="M25 50C38.8071 50 50 38.8071 50 25C50 11.1929 38.8071 0 25 0C11.1929 0 0 11.1929 0 25C0 38.8071 11.1929 50 25 50Z" fill="#25D366"/>
<path d="M12.7698 37.4419L14.5256 31.0326C13.1672 28.6739 12.6249 25.933 12.9827 23.2347C13.3405 20.5365 14.5784 18.0316 16.5046 16.1085C18.4307 14.1854 20.9375 12.9514 23.6363 12.5978C26.3352 12.2442 29.0752 12.7909 31.4318 14.153C33.7883 15.515 35.6297 17.6165 36.6704 20.1315C37.7112 22.6465 37.8932 25.4346 37.1883 28.0636C36.4833 30.6926 34.9307 33.0156 32.7713 34.6725C30.6118 36.3294 27.9661 37.2276 25.2442 37.2279C23.1795 37.2267 21.148 36.7086 19.3349 35.7209L12.7698 37.4419ZM19.6302 33.4884L20.007 33.7209C21.5912 34.6591 23.3984 35.1547 25.2396 35.1558C27.5196 35.1563 29.7351 34.399 31.5379 33.003C33.3406 31.607 34.6283 29.6515 35.1985 27.444C35.7687 25.2364 35.5891 22.9019 34.688 20.8075C33.7868 18.7131 32.2151 16.9776 30.2201 15.8738C28.225 14.77 25.9197 14.3605 23.6666 14.7097C21.4135 15.0589 19.3403 16.147 17.7729 17.8029C16.2056 19.4588 15.233 21.5886 15.008 23.8575C14.7831 26.1264 15.3186 28.4058 16.5303 30.3372L16.7628 30.7256L15.7233 34.5186L19.6302 33.4884Z" fill="white"/>
<path fill-rule="evenodd" clip-rule="evenodd" d="M31.4745 27.8C31.3977 27.6698 31.1907 27.593 30.8814 27.4395C30.5721 27.286 29.0535 26.5372 28.7698 26.4326C28.4861 26.3279 28.2814 26.2791 28.0721 26.5884C27.8628 26.8977 27.2744 27.593 27.0954 27.8C26.9163 28.007 26.7326 28.0326 26.4256 27.8767C25.5191 27.5127 24.6827 26.9942 23.9535 26.3442C23.2778 25.7192 22.6987 24.9974 22.2349 24.2023C22.0535 23.893 22.214 23.7372 22.3698 23.5721C22.5256 23.407 22.6791 23.2093 22.8349 23.0302C22.9628 22.8742 23.067 22.7003 23.1442 22.514C23.1849 22.4285 23.2039 22.3343 23.1994 22.2398C23.195 22.1453 23.1672 22.0533 23.1186 21.9721C23.0419 21.8186 22.421 20.2977 22.1651 19.6791C21.9093 19.0605 21.6605 19.1581 21.4675 19.1465C21.2744 19.1349 21.0814 19.1465 20.8768 19.1465C20.7178 19.1491 20.5612 19.1851 20.417 19.2519C20.2728 19.3188 20.1442 19.4152 20.0396 19.5349C19.6927 19.8637 19.4176 20.2607 19.2316 20.701C19.0455 21.1412 18.9524 21.6151 18.9582 22.093C18.9582 23.614 20.0651 25.0837 20.221 25.2907C20.3768 25.4977 22.4 28.6186 25.5 29.9558C26.0756 30.2042 26.664 30.4215 27.2628 30.607C27.8933 30.7984 28.5597 30.8406 29.2093 30.7302C29.8023 30.6419 31.0372 29.9814 31.3023 29.2605C31.5675 28.5395 31.5512 27.9279 31.4745 27.8Z" fill="white"/>
</svg>
