<?xml version="1.0" standalone="no"?>
<!DOCTYPE svg PUBLIC "-//W3C//DTD SVG 20010904//EN"
 "http://www.w3.org/TR/2001/REC-SVG-20010904/DTD/svg10.dtd">
<svg version="1.0" xmlns="http://www.w3.org/2000/svg"
 width="700.000000pt" height="700.000000pt" viewBox="0 0 700.000000 700.000000"
 preserveAspectRatio="xMidYMid meet">
<metadata>
Created by potrace 1.14, written by Peter Selinger 2001-2017
</metadata>
<g transform="translate(0.000000,700.000000) scale(0.100000,-0.100000)"
fill="#000000" stroke="none">
<path d="M3280 6994 c-19 -2 -84 -9 -145 -15 -819 -81 -1613 -488 -2177 -1114
-490 -544 -788 -1207 -880 -1960 -19 -163 -16 -634 5 -800 53 -399 157 -753
322 -1093 183 -377 389 -668 679 -957 551 -549 1247 -887 2026 -982 198 -24
581 -24 780 0 1326 160 2429 1056 2864 2325 79 230 135 486 168 757 19 163 16
625 -6 790 -136 1039 -682 1923 -1536 2490 -437 290 -928 470 -1471 540 -116
16 -548 28 -629 19z m-204 -2619 c422 -157 773 -285 780 -285 7 0 169 102 361
226 191 124 364 234 383 244 54 27 217 78 293 91 108 18 191 -3 215 -56 37
-80 -17 -207 -141 -330 -69 -68 -141 -119 -461 -325 -219 -142 -381 -253 -386
-265 -4 -11 -10 -130 -13 -265 -3 -135 -17 -429 -31 -655 -14 -225 -30 -502
-36 -615 -9 -188 -12 -209 -36 -258 -45 -91 -141 -139 -266 -130 -106 7 -158
45 -158 116 0 45 -69 504 -106 707 -67 368 -105 505 -138 505 -8 0 -88 -49
-178 -108 -90 -60 -283 -185 -429 -280 l-266 -172 20 -72 c27 -101 29 -270 4
-316 -20 -36 -105 -101 -227 -174 l-78 -47 -319 491 c-175 270 -319 495 -321
499 -4 10 244 174 296 196 74 31 153 1 282 -106 l83 -70 65 59 c35 32 213 176
396 318 182 143 338 267 346 277 11 14 8 21 -26 56 -48 49 -243 185 -684 479
-184 122 -337 225 -340 227 -3 2 -4 30 -4 61 2 106 66 190 180 237 117 49 86
57 940 -260z"/>
</g>
</svg>
